<?xml version="1.0" encoding="utf-8"?>
<!-- Generator: Adobe Illustrator 23.0.2, SVG Export Plug-In . SVG Version: 6.00 Build 0)  -->
<svg version="1.1" id="图层_1" xmlns="http://www.w3.org/2000/svg" xmlns:xlink="http://www.w3.org/1999/xlink" x="0px" y="0px"
	 viewBox="0 0 1024 1024" style="enable-background:new 0 0 1024 1024;" xml:space="preserve">
<style type="text/css">
	.st0{fill:url(#SVGID_1_);}
	.st1{fill:url(#SVGID_2_);}
	.st2{fill:url(#SVGID_3_);}
	.st3{fill:url(#SVGID_4_);}
</style>
<g>
	<linearGradient id="SVGID_1_" gradientUnits="userSpaceOnUse" x1="105.2999" y1="751.6869" x2="710.023" y2="751.6869">
		<stop  offset="0" style="stop-color:#510057"/>
		<stop  offset="1" style="stop-color:#070036"/>
	</linearGradient>
	<path class="st0" d="M675.66,786.13c-15.03-50.27-30.98-100.35-55.15-147.18c-13.03-25.25-28.99-48.41-54.16-63.56
		c-36.18-21.79-75.92-30.5-117.57-31.25c-34.9-0.63-69.83-0.15-104.74-0.14c-76,0.04-136.98,40.97-163.14,112.29
		c-16.7,45.54-31.3,91.93-45.07,138.45c-11.08,37.43-20.04,75.52-28.93,113.55c-5.79,24.76,4.22,41.19,27.89,49.57
		c1,0.36,1.86,1.12,2.78,1.69c179.92,0,359.83,0,539.75,0c30.29-12.53,37.51-24.11,29.9-56.29
		C697.92,863.93,687.25,824.86,675.66,786.13z"/>
	<linearGradient id="SVGID_2_" gradientUnits="userSpaceOnUse" x1="204.4382" y1="266.4971" x2="609.2358" y2="266.4971">
		<stop  offset="0" style="stop-color:#510057"/>
		<stop  offset="1" style="stop-color:#070036"/>
	</linearGradient>
	<path class="st1" d="M395.37,468.16c82.99,4.62,146.91-31.4,188.17-103.51c62.04-108.43,6.7-249.99-112.15-288.56
		c-18.4-5.97-38.13-7.86-57.24-11.64c-6.15,0-12.29,0-18.44,0c-2.41,0.55-4.8,1.39-7.24,1.6
		c-135.9,11.58-222.62,156.44-166.93,280.92C254.86,421.41,313.78,463.62,395.37,468.16z"/>
	<linearGradient id="SVGID_3_" gradientUnits="userSpaceOnUse" x1="526.5016" y1="604.0422" x2="918.7001" y2="604.0422">
		<stop  offset="0" style="stop-color:#510057"/>
		<stop  offset="1" style="stop-color:#070036"/>
	</linearGradient>
	<path class="st2" d="M917.33,719.52c-8.7-31.75-15.97-63.97-26.37-95.14c-12.16-36.46-25.9-72.51-41.15-107.79
		c-9.88-22.85-26.51-41.13-49.82-52.36c-26.47-12.75-54.44-18.04-83.57-18.17c-25.14-0.11-50.29-0.01-75.43,0
		c-23.04,0.01-44.84,5.29-65.24,15.95c-20.97,10.94-37.72,26.33-49.24,47.21c1.04,0.7,1.46,1.11,1.96,1.3
		c1.3,0.5,2.61,0.97,3.96,1.34c60.79,16.95,103.69,54.73,130.81,111.39c20.19,42.19,35.48,86.18,49.48,130.66
		c1.87,5.96,4.32,8.15,10.84,8.11c52.8-0.29,105.6-0.45,158.4,0.05c16.69,0.16,29.4-4.78,36.74-20.42c0-6.7,0-13.41,0-20.12
		C918.23,720.86,917.53,720.26,917.33,719.52z"/>
	<linearGradient id="SVGID_4_" gradientUnits="userSpaceOnUse" x1="599.319" y1="235.3277" x2="842.3418" y2="235.3277">
		<stop  offset="0" style="stop-color:#510057"/>
		<stop  offset="1" style="stop-color:#070036"/>
	</linearGradient>
	<path class="st3" d="M628.91,376.11c54.79,25.86,138.14,14.87,186.39-53.64c43.92-62.36,33.5-150.08-25.14-202.19
		c-58.96-52.4-141.06-47.47-190.85-8.74C660.27,194.44,670.56,282.43,628.91,376.11z"/>
</g>
</svg>
