<?xml version="1.0" encoding="utf-8"?>
<!-- Generator: Adobe Illustrator 23.0.2, SVG Export Plug-In . SVG Version: 6.00 Build 0)  -->
<svg version="1.1" id="图层_1" xmlns="http://www.w3.org/2000/svg" xmlns:xlink="http://www.w3.org/1999/xlink" x="0px" y="0px"
	 viewBox="0 0 1024 1024" style="enable-background:new 0 0 1024 1024;" xml:space="preserve">
<style type="text/css">
	.st0{fill:url(#SVGID_1_);}
</style>
<g>
	<linearGradient id="SVGID_1_" gradientUnits="userSpaceOnUse" x1="77.3307" y1="512" x2="946.6693" y2="512">
		<stop  offset="0" style="stop-color:#510057"/>
		<stop  offset="1" style="stop-color:#070036"/>
	</linearGradient>
	<path class="st0" d="M895.82,99.92c-153.47-106.9-421.64,61.84-421.64,61.84l-2.54,0.5c-0.04,0.02-0.04,0.06-0.09,0.08
		c-1.12,0.24-2.26,0.41-3.4,0.65l0.05-0.08l-4.37,0.98c0,0-263.32,45.49-316.74,278.9c0,0,1.44-2.28,3.99-6.06
		c65.69-102.9,172.07-136.36,172.07-136.36c-83.21,78.52-154.83,208-162.44,221.98c0,0.05-0.02,0.09-0.02,0.15
		c-4.03,7.58-8.05,15.24-11.96,23.16l0,0c-49.13,92.9-122.01,335-19.77,391.65c97.67,54.16,226.9-4.49,273.61-29.42
		c45.95,18.93,96.28,29.42,149.06,29.42c159.59,0,296.78-95.5,357.83-232.43H691.35c-28.48,41.8-76.44,69.26-130.82,69.26
		c-87.41,0-158.24-70.86-158.24-158.25c0-2.33,0.27-4.62,0.37-6.94h213.26H718.4h219.73c3.34-20.61,5.17-41.72,5.17-63.29
		c0-68.32-17.53-132.5-48.28-188.43C915.97,322.99,999.49,172.14,895.82,99.92z M184.36,910.96
		c-71.1-63.36-15.54-186.84,2.66-222.29c32.65,83.21,92.92,152.48,169.57,196.59C325.16,904.95,234.01,955.23,184.36,910.96z
		 M882.19,152.97c58.14,44.2,8.5,151.62-4.05,176.42c-48.98-73.8-122.26-130.05-208.49-157.26
		C698.56,152.6,801.51,91.66,882.19,152.97z M402.42,482.35c1.6-85.99,71.7-155.28,158.11-155.28c86.39,0,156.5,69.28,158.1,155.28
		H402.42z"/>
</g>
</svg>
